#!OML:ASF H:\Not Pregnant\Project 1\Capture day 1\Session 1\non-pregnant.ASF
:FULLY-SPECIFIED
:DEGREES
728
root 6.70636 15.8073 34.0052 15.392 -15.8568 -4.8058
lowerback -5.18141 0.272987 0.717953
upperback -8.64906 0.306182 0.10167
thorax -6.0873 0.0892441 -0.29356
lowerneck 35.8838 -15.586 -25.4754
upperneck -31.4916 -24.7674 48.6994
head -3.55232 -17.4693 28.5684
rclavicle -3.66261e-014 3.18055e-015
rhumerus -35.6681 -4.75778 -88.4084
rradius 29.4989
rwrist 22.79
rhand -10.1465 -0.434011
rfingers 7.12502
rthumb 15.8425 -29.8058
lclavicle -3.66261e-014 3.18055e-015
lhumerus -40.6439 -0.931243 82.5872
lradius 31.5726
lwrist 32.3291
lhand -18.0862 -10.9289
lfingers 7.12502
lthumb 8.18715 18.8925
rfemur -30.0757 1.49824 24.0738
rtibia 46.7528
rfoot -18.6456 -3.71986
rtoes -22.8578
lfemur -31.6373 0.899381 -19.6935
ltibia 32.091
lfoot -13.8525 -5.94848
ltoes -16.4367
729
root 6.69914 15.8058 34.0432 15.5177 -15.9213 -4.84849
lowerback -5.20573 0.195601 0.641171
upperback -8.68698 0.203542 0.131901
thorax -6.11572 0.0431499 -0.218859
lowerneck 36.1968 -15.7008 -25.4082
upperneck -31.6913 -24.9423 48.8415
head -3.56191 -17.6136 28.6996
rclavicle -7.74763e-014 -9.54166e-015
rhumerus -35.6276 -4.48207 -88.5792
rradius 29.5464
rwrist 22.739
rhand -10.055 -0.362802
rfingers 7.12502
rthumb 15.9307 -29.7276
lclavicle -7.74763e-014 -9.54166e-015
lhumerus -40.4711 -0.870031 82.5073
lradius 31.9333
lwrist 32.6738
lhand -18.184 -10.9834
lfingers 7.12502
lthumb 8.09275 18.8417
rfemur -30.493 1.40594 24.2853
rtibia 45.9249
rfoot -18.8927 -4.06823
rtoes -22.5767
lfemur -31.6617 0.974304 -19.6839
ltibia 32.2203
lfoot -14.0777 -5.85752
ltoes -16.6176
730
root 6.69116 15.8045 34.0813 15.6432 -15.9792 -4.89707
lowerback -5.24457 0.124354 0.5778
upperback -8.72222 0.108763 0.159345
thorax -6.13262 0.000145714 -0.154546
lowerneck 36.4967 -15.7973 -25.3636
upperneck -31.8578 -25.1075 48.9861
head -3.55851 -17.7517 28.8353
rclavicle 6.60959e-015 1.27222e-014
rhumerus -35.6009 -4.2322 -88.7342
rradius 29.5839
rwrist 22.7024
rhand -9.96624 -0.295393
rfingers 7.12502
rthumb 16.0162 -29.6534
lclavicle 6.60959e-015 1.27222e-014
lhumerus -40.315 -0.847428 82.4518
lradius 32.3221
lwrist 33.0607
lhand -18.281 -11.0457
lfingers 7.12502
lthumb 7.99913 18.7829
rfemur -30.8779 1.31617 24.5054
rtibia 45.0621
rfoot -19.1018 -4.43336
rtoes -22.2448
lfemur -31.6788 1.07397 -19.6711
ltibia 32.3386
lfoot -14.3065 -5.79329
ltoes -16.8222
731
root 6.68257 15.8034 34.1195 15.7604 -16.0237 -4.93902
lowerback -5.28458 0.0488777 0.512695
upperback -8.75114 0.00835227 0.18526
thorax -6.14178 -0.0455333 -0.0908983
lowerneck 36.7569 -15.8948 -25.3132
upperneck -31.9917 -25.2648 49.1117
head -3.54734 -17.8809 28.9358
rclavicle 3.26504e-014 -1.82882e-014
rhumerus -35.5706 -4.00382 -88.8793
rradius 29.5988
rwrist 22.6935
rhand -9.89005 -0.21835
rfingers 7.12502
rthumb 16.0895 -29.5704
lclavicle 3.26504e-014 -1.82882e-014
lhumerus -40.1668 -0.838299 82.4089
lradius 32.7324
lwrist 33.4679
lhand -18.3798 -11.1299
lfingers 7.12502
lthumb 7.90382 18.7023
rfemur -31.2268 1.20626 24.7245
rtibia 44.174
rfoot -19.2739 -4.82895
rtoes -21.8566
lfemur -31.6861 1.18914 -19.6673
ltibia 32.4493
lfoot -14.533 -5.76419
ltoes -16.9857
732
root 6.67333 15.8017 34.1574 15.8644 -16.0581 -4.97688
lowerback -5.32882 -0.0190621 0.456656
upperback -8.77062 -0.0823169 0.202526
thorax -6.13806 -0.0871076 -0.0414374
lowerneck 36.999 -16.0064 -25.2456
upperneck -32.1249 -25.4251 49.2277
head -3.53638 -18.0103 29.0124
rclavicle 5.34234e-014 -4.77083e-015
rhumerus -35.5477 -3.82141 -89.0032
rradius 29.6067
rwrist 22.6965
rhand -9.81475 -0.152241
rfingers 7.12502
rthumb 16.162 -29.4984
lclavicle 5.34234e-014 -4.77083e-015
lhumerus -40.0228 -0.876522 82.3918
lradius 33.1585
lwrist 33.8943
lhand -18.4795 -11.2172
lfingers 7.12502
lthumb 7.80759 18.6187
rfemur -31.5368 1.07704 24.95
rtibia 43.271
rfoot -19.4052 -5.28327
rtoes -21.5093
lfemur -31.6831 1.31744 -19.6675
ltibia 32.556
lfoot -14.7549 -5.76805
ltoes -17.0989
733
root 6.66391 15.7995 34.1957 15.9504 -16.0843 -4.9953
lowerback -5.36662 -0.0935337 0.390131
upperback -8.78534 -0.181646 0.215887
thorax -6.13266 -0.132464 0.00974001
lowerneck 37.1962 -16.1395 -25.1466
upperneck -32.2411 -25.5846 49.3091
head -3.52736 -18.1323 29.0267
rclavicle 1.28216e-014 -5.56597e-015
rhumerus -35.5285 -3.65193 -89.1198
rradius 29.6003
rwrist 22.7061
rhand -9.73586 -0.103353
rfingers 7.12502
rthumb 16.238 -29.4433
lclavicle 1.28216e-014 -5.56597e-015
lhumerus -39.9021 -0.920823 82.3848
lradius 33.5997
lwrist 34.3217
lhand -18.574 -11.3262
lfingers 7.12502
lthumb 7.71629 18.513
rfemur -31.8064 0.903275 25.1686
rtibia 42.3629
rfoot -19.4998 -5.78634
rtoes -21.283
lfemur -31.6651 1.45582 -19.6916
ltibia 32.6604
lfoot -14.9764 -5.80679
ltoes -17.1367
734
root 6.6541 15.7965 34.2339 16.0186 -16.1092 -4.99714
lowerback -5.39399 -0.166311 0.314668
upperback -8.79937 -0.278729 0.222846
thorax -6.13215 -0.176354 0.0592047
lowerneck 37.3718 -16.2801 -25.0339
upperneck -32.3399 -25.7404 49.3667
head -3.52018 -18.2474 29.0058
rclavicle 5.91384e-014 5.56597e-015
rhumerus -35.5251 -3.50669 -89.2225
rradius 29.5855
rwrist 22.7134
rhand -9.65286 -0.0830422
rfingers 7.12502
rthumb 16.3179 -29.4165
lclavicle 5.91384e-014 5.56597e-015
lhumerus -39.8023 -0.987032 82.3937
lradius 34.0453
lwrist 34.7433
lhand -18.6647 -11.4624
lfingers 7.12502
lthumb 7.62876 18.38
rfemur -32.0438 0.695675 25.3854
rtibia 41.457
rfoot -19.5406 -6.33177
rtoes -21.1749
lfemur -31.6328 1.60415 -19.7338
ltibia 32.7604
lfoot -15.193 -5.87235
ltoes -17.1185
735
root 6.64384 15.793 34.2722 16.0782 -16.1347 -4.98544
lowerback -5.41843 -0.240357 0.227215
upperback -8.81222 -0.377379 0.227923
thorax -6.13171 -0.220331 0.113365
lowerneck 37.5246 -16.4118 -24.9323
upperneck -32.4134 -25.8887 49.4196
head -3.50391 -18.3559 28.975
rclavicle -9.39258e-015 -5.56597e-015
rhumerus -35.5256 -3.38426 -89.3119
rradius 29.5511
rwrist 22.7361
rhand -9.58054 -0.0710586
rfingers 7.12502
rthumb 16.3875 -29.3988
lclavicle -9.39258e-015 -5.56597e-015
lhumerus -39.7138 -1.05163 82.4087
lradius 34.4886
lwrist 35.1372
lhand -18.742 -11.5945
lfingers 7.12502
lthumb 7.55417 18.2506
rfemur -32.2593 0.458964 25.6043
rtibia 40.5587
rfoot -19.5369 -6.89143
rtoes -21.2249
lfemur -31.5924 1.76139 -19.79
ltibia 32.8502
lfoot -15.4047 -5.95812
ltoes -17.0575
736
root 6.63364 15.7896 34.3116 16.1205 -16.1602 -4.94785
lowerback -5.44678 -0.311015 0.130194
upperback -8.82785 -0.4717 0.22509
thorax -6.13178 -0.261836 0.164567
lowerneck 37.6791 -16.5296 -24.8526
upperneck -32.4664 -26.0331 49.467
head -3.48098 -18.4599 28.9438
rclavicle -3.58309e-014 -1.35174e-014
rhumerus -35.5478 -3.28594 -89.3789
rradius 29.5017
rwrist 22.756
rhand -9.51457 -0.0801125
rfingers 7.12502
rthumb 16.4511 -29.4026
lclavicle -3.58309e-014 -1.35174e-014
lhumerus -39.6542 -1.12392 82.4397
lradius 34.9282
lwrist 35.4959
lhand -18.8048 -11.7509
lfingers 7.12502
lthumb 7.49355 18.0963
rfemur -32.4451 0.169507 25.8079
rtibia 39.6715
rfoot -19.4916 -7.40398
rtoes -21.3285
lfemur -31.5246 1.92274 -19.8777
ltibia 32.9223
lfoot -15.6167 -6.05992
ltoes -16.9757
737
root 6.62302 15.7866 34.3512 16.1547 -16.1817 -4.89418
lowerback -5.48457 -0.376098 0.030407
upperback -8.84303 -0.558813 0.213967
thorax -6.12582 -0.299858 0.208535
lowerneck 37.8302 -16.6381 -24.7883
upperneck -32.5037 -26.1745 49.5099
head -3.45232 -18.5601 28.9098
rclavicle -3.70236e-014 -1.59028e-014
rhumerus -35.5815 -3.23323 -89.42
rradius 29.427
rwrist 22.8075
rhand -9.4838 -0.063408
rfingers 7.12502
rthumb 16.4807 -29.3834
lclavicle -3.70236e-014 -1.59028e-014
lhumerus -39.5895 -1.21893 82.4846
lradius 35.3524
lwrist 35.8275
lhand -18.8609 -11.8818
lfingers 7.12502
lthumb 7.43945 17.9674
rfemur -32.6161 -0.156914 26.0074
rtibia 38.802
rfoot -19.3984 -7.8382
rtoes -21.4012
lfemur -31.4411 2.0948 -19.9829
ltibia 32.9718
lfoot -15.8212 -6.18651
ltoes -16.8693
738
root 6.61225 15.784 34.3916 16.1771 -16.2067 -4.83305
lowerback -5.53762 -0.430752 -0.057034
upperback -8.8503 -0.632367 0.193227
thorax -6.10275 -0.33222 0.235307
lowerneck 37.9726 -16.7413 -24.7296
upperneck -32.5297 -26.3106 49.5455
head -3.4222 -18.6551 28.8692
rclavicle 5.1684e-014 -1.19271e-014
rhumerus -35.6231 -3.21701 -89.4407
rradius 29.3392
rwrist 22.8608
rhand -9.46618 -0.047747
rfingers 7.12502
rthumb 16.4977 -29.3663
lclavicle 5.1684e-014 -1.19271e-014
lhumerus -39.5199 -1.34224 82.5449
lradius 35.7557
lwrist 36.1356
lhand -18.9016 -12.0145
lfingers 7.12502
lthumb 7.40015 17.8361
rfemur -32.7633 -0.520374 26.2079
rtibia 37.957
rfoot -19.2475 -8.15476
rtoes -21.4174
lfemur -31.3293 2.27951 -20.0985
ltibia 32.9952
lfoot -16.0213 -6.33051
ltoes -16.7429
739
root 6.60124 15.7819 34.4319 16.1893 -16.2298 -4.7625
lowerback -5.59399 -0.480931 -0.138328
upperback -8.85136 -0.700134 0.164552
thorax -6.07117 -0.362368 0.250195
lowerneck 38.0972 -16.8432 -24.6714
upperneck -32.5461 -26.4416 49.574
head -3.39032 -18.745 28.8175
rclavicle -2.42517e-014 -1.19271e-014
rhumerus -35.6637 -3.23402 -89.4468
rradius 29.2282
rwrist 22.9205
rhand -9.46933 -0.0163799
rfingers 7.12502
rthumb 16.4946 -29.3352
lclavicle -2.42517e-014 -1.19271e-014
lhumerus -39.4449 -1.47825 82.6123
lradius 36.1394
lwrist 36.4112
lhand -18.938 -12.1536
lfingers 7.12502
lthumb 7.36504 17.6982
rfemur -32.8971 -0.918868 26.4075
rtibia 37.1497
rfoot -19.0007 -8.33093
rtoes -21.3768
lfemur -31.1968 2.48192 -20.2259
ltibia 32.9928
lfoot -16.21 -6.50731
ltoes -16.5741
740
root 6.58982 15.7804 34.472 16.1983 -16.2568 -4.69862
lowerback -5.66822 -0.514422 -0.192772
upperback -8.8425 -0.746138 0.124041
thorax -6.01928 -0.38376 0.237424
lowerneck 38.2222 -16.9424 -24.6139
upperneck -32.5642 -26.5688 49.6045
head -3.36033 -18.833 28.7719
rclavicle -4.63168e-014 0
rhumerus -35.707 -3.30541 -89.4335
rradius 29.1076
rwrist 22.9818
rhand -9.47478 0.0157893
rfingers 7.12502
rthumb 16.4894 -29.3035
lclavicle -4.63168e-014 0
lhumerus -39.3535 -1.65339 82.6925
lradius 36.4965
lwrist 36.653
lhand -18.9671 -12.288
lfingers 7.12502
lthumb 7.33692 17.5647
rfemur -33.027 -1.32696 26.6198
rtibia 36.3958
rfoot -18.5917 -8.37179
rtoes -21.3546
lfemur -31.0464 2.70287 -20.3459
ltibia 32.9607
lfoot -16.3857 -6.70641
ltoes -16.3789
741
root 6.57804 15.7798 34.5114 16.2043 -16.2852 -4.63849
lowerback -5.72641 -0.547053 -0.242373
upperback -8.8387 -0.790926 0.085621
thorax -5.982 -0.404764 0.224273
lowerneck 38.3308 -17.0333 -24.5625
upperneck -32.5656 -26.6864 49.6242
head -3.3289 -18.9124 28.7167
rclavicle 2.3059e-014 7.95139e-015
rhumerus -35.7604 -3.39358 -89.4103
rradius 28.9709
rwrist 23.0518
rhand -9.47918 0.0525369
rfingers 7.12502
rthumb 16.4851 -29.2671
lclavicle 2.3059e-014 7.95139e-015
lhumerus -39.2771 -1.81879 82.7725
lradius 36.8378
lwrist 36.8514
lhand -18.9905 -12.4108
lfingers 7.12502
lthumb 7.31433 17.4428
rfemur -33.159 -1.73709 26.839
rtibia 35.7167
rfoot -17.9519 -8.25887
rtoes -21.2274
lfemur -30.8793 2.94234 -20.4613
ltibia 32.895
lfoot -16.5461 -6.9304
ltoes -16.172
